Daniel Barenboim and his youthful ensemble relish the energy of Beethoven's Fourth Symphony before tackling the 'Eroica', one of the irrefutable mould-breakers of classical music. Between these peaks, Boulez's Dialogue de l'ombre double introduces another kind of theatre, the clarinet's electronic double becoming more 'real' than the soloist physically present.

Beethoven - Symphony No. 4 in B flat major (35 mins)
Pierre Boulez - Dialogue de l'ombre double (20 mins)
Beethoven - Symphony No. 3 in E flat major, 'Eroica' (50 mins)

Format                                   : MPEG-4
Format profile                           : Base Media
Codec ID                                 : isom
File size                                : 1.36 GiB
Duration                                 : 2h 9mn
Overall bit rate mode                    : Constant
Overall bit rate                         : 1 503 Kbps

Video
ID                                       : 1
Format                                   : AVC
Format/Info                              : Advanced Video Codec
Format profile                           : Main@L3.0
Format settings, CABAC                   : Yes
Format settings, ReFrames                : 4 frames
Codec ID                                 : avc1
Codec ID/Info                            : Advanced Video Coding
Duration                                 : 2h 9mn
Bit rate mode                            : Constant
Bit rate                                 : 1 404 Kbps
Width                                    : 832 pixels
Height                                   : 468 pixels
Display aspect ratio                     : 16:9
Frame rate mode                          : Constant
Frame rate                               : 25.000 fps
Standard                                 : PAL
Color space                              : YUV
Chroma subsampling                       : 4:2:0
Bit depth                                : 8 bits
Scan type                                : Progressive
Bits/(Pixel*Frame)                       : 0.144
Stream size                              : 1.26 GiB (93%)

Audio
ID                                       : 2
Format                                   : AAC
Format/Info                              : Advanced Audio Codec
Format profile                           : HE-AAC / LC
Codec ID                                 : 40
Duration                                 : 2h 9mn
Bit rate mode                            : Constant
Bit rate                                 : 96.0 Kbps
Channel(s)                               : 2 channels
Channel positions                        : Front: L R
Sampling rate                            : 48.0 KHz / 24.0 KHz
Compression mode                         : Lossy
Stream size                              : 87.5 MiB (6%)
